<svg width="71" height="70" viewBox="0 0 71 70" fill="none" xmlns="http://www.w3.org/2000/svg">
<ellipse cx="35.7628" cy="35" rx="34.8312" ry="35" fill="#5CBA99"/>
<path d="M43.9631 43H45.6591V38.504C45.6591 37.8213 45.7577 37.2773 45.9551 36.872C46.1577 36.4613 46.4244 36.1653 46.7551 35.984C47.0857 35.8027 47.4511 35.712 47.8511 35.712C48.3097 35.712 48.6831 35.8053 48.9711 35.992C49.2591 36.1787 49.4804 36.424 49.6351 36.728C49.7897 37.032 49.8937 37.3627 49.9471 37.72C50.0057 38.072 50.0351 38.416 50.0351 38.752V43H51.7311V38.2C51.7311 37.9333 51.7071 37.624 51.6591 37.272C51.6111 36.92 51.5204 36.56 51.3871 36.192C51.2537 35.824 51.0591 35.4853 50.8031 35.176C50.5524 34.8613 50.2244 34.608 49.8191 34.416C49.4137 34.224 48.9124 34.128 48.3151 34.128C47.6911 34.128 47.1364 34.24 46.6511 34.464C46.1711 34.688 45.7737 34.9973 45.4591 35.392V31.48H43.9631V43ZM53.8148 43H55.5028V38.64C55.5028 38.1333 55.5828 37.664 55.7428 37.232C55.9028 36.8 56.1855 36.4533 56.5908 36.192C56.8788 36.0053 57.1962 35.896 57.5428 35.864C57.8895 35.832 58.2015 35.8533 58.4788 35.928V34.36C58.0895 34.2853 57.6762 34.288 57.2388 34.368C56.8068 34.448 56.4282 34.608 56.1028 34.848C55.7828 35.0613 55.5162 35.3573 55.3028 35.736V34.36H53.8148V43Z" fill="white"/>
<path d="M13.2 43.988H24.888V41.6H17.076L22.08 37.136C22.704 36.584 23.224 36.072 23.64 35.6C24.056 35.128 24.368 34.616 24.576 34.064C24.784 33.504 24.888 32.832 24.888 32.048C24.888 30.952 24.636 29.976 24.132 29.12C23.636 28.264 22.956 27.592 22.092 27.104C21.228 26.608 20.252 26.36 19.164 26.36C18.02 26.36 17 26.6 16.104 27.08C15.216 27.552 14.52 28.212 14.016 29.06C13.512 29.9 13.26 30.88 13.26 32H15.828C15.82 31.416 15.956 30.88 16.236 30.392C16.524 29.896 16.916 29.5 17.412 29.204C17.908 28.9 18.476 28.748 19.116 28.748C20.044 28.748 20.808 29.06 21.408 29.684C22.008 30.308 22.308 31.084 22.308 32.012C22.308 32.5 22.196 32.988 21.972 33.476C21.756 33.956 21.344 34.468 20.736 35.012L13.212 41.756L13.2 43.988ZM33.8972 44H36.4412V40.988H38.1572V38.612H36.4412V33.932H33.8972V38.612H28.9652L34.5812 26.72H31.7132L26.0972 38.612V40.988H33.8972V44Z" fill="white"/>
</svg>
