<svg width="72" height="72" viewBox="0 0 72 72" fill="none" xmlns="http://www.w3.org/2000/svg">
<circle cx="36" cy="36" r="36" fill="#661CE7"/>
<path d="M26.528 48.48C24.896 48.48 23.456 48.1333 22.208 47.44C20.96 46.736 19.984 45.76 19.28 44.512C18.5867 43.264 18.24 41.824 18.24 40.192V32.768C18.24 31.136 18.5867 29.696 19.28 28.448C19.984 27.2 20.96 26.2293 22.208 25.536C23.456 24.832 24.896 24.48 26.528 24.48C28.16 24.48 29.5947 24.832 30.832 25.536C32.08 26.2293 33.056 27.2 33.76 28.448C34.464 29.696 34.816 31.136 34.816 32.768V40.192C34.816 41.824 34.464 43.264 33.76 44.512C33.056 45.76 32.08 46.736 30.832 47.44C29.5947 48.1333 28.16 48.48 26.528 48.48ZM26.528 44.816C27.3387 44.816 28.0747 44.624 28.736 44.24C29.3973 43.8453 29.92 43.3227 30.304 42.672C30.688 42.0107 30.88 41.2747 30.88 40.464V32.48C30.88 31.6587 30.688 30.9227 30.304 30.272C29.92 29.6107 29.3973 29.088 28.736 28.704C28.0747 28.3093 27.3387 28.112 26.528 28.112C25.7173 28.112 24.9813 28.3093 24.32 28.704C23.6587 29.088 23.136 29.6107 22.752 30.272C22.368 30.9227 22.176 31.6587 22.176 32.48V40.464C22.176 41.2747 22.368 42.0107 22.752 42.672C23.136 43.3227 23.6587 43.8453 24.32 44.24C24.9813 44.624 25.7173 44.816 26.528 44.816ZM38.6625 47.968V44.608L48.5185 35.824C49.2865 35.1413 49.8198 34.496 50.1185 33.888C50.4172 33.28 50.5665 32.6933 50.5665 32.128C50.5665 31.36 50.4012 30.6773 50.0705 30.08C49.7398 29.472 49.2812 28.992 48.6945 28.64C48.1185 28.288 47.4518 28.112 46.6945 28.112C45.8945 28.112 45.1852 28.2987 44.5665 28.672C43.9585 29.0347 43.4838 29.52 43.1425 30.128C42.8012 30.736 42.6412 31.392 42.6625 32.096H38.6945C38.6945 30.56 39.0358 29.2213 39.7185 28.08C40.4118 26.9387 41.3612 26.0533 42.5665 25.424C43.7825 24.7947 45.1852 24.48 46.7745 24.48C48.2465 24.48 49.5692 24.8107 50.7425 25.472C51.9158 26.1227 52.8385 27.0293 53.5105 28.192C54.1825 29.344 54.5185 30.672 54.5185 32.176C54.5185 33.2747 54.3692 34.1973 54.0705 34.944C53.7718 35.6907 53.3238 36.3787 52.7265 37.008C52.1398 37.6373 51.4092 38.336 50.5345 39.104L43.5425 45.296L43.1905 44.336H54.5185V47.968H38.6625Z" fill="white"/>
<mask id="mask0_715_70" style="mask-type:alpha" maskUnits="userSpaceOnUse" x="0" y="0" width="72" height="72">
<circle cx="36" cy="36" r="36" fill="#661CE7"/>
</mask>
<g mask="url(#mask0_715_70)">
<circle cx="36" cy="72" r="21" fill="white" fill-opacity="0.24"/>
</g>
</svg>
