<svg width="72" height="72" viewBox="0 0 72 72" fill="none" xmlns="http://www.w3.org/2000/svg">
<circle cx="36" cy="36" r="36" fill="#661CE7"/>
<path d="M26.528 48.48C24.896 48.48 23.456 48.1333 22.208 47.44C20.96 46.736 19.984 45.76 19.28 44.512C18.5867 43.264 18.24 41.824 18.24 40.192V32.768C18.24 31.136 18.5867 29.696 19.28 28.448C19.984 27.2 20.96 26.2293 22.208 25.536C23.456 24.832 24.896 24.48 26.528 24.48C28.16 24.48 29.5947 24.832 30.832 25.536C32.08 26.2293 33.056 27.2 33.76 28.448C34.464 29.696 34.816 31.136 34.816 32.768V40.192C34.816 41.824 34.464 43.264 33.76 44.512C33.056 45.76 32.08 46.736 30.832 47.44C29.5947 48.1333 28.16 48.48 26.528 48.48ZM26.528 44.816C27.3387 44.816 28.0747 44.624 28.736 44.24C29.3973 43.8453 29.92 43.3227 30.304 42.672C30.688 42.0107 30.88 41.2747 30.88 40.464V32.48C30.88 31.6587 30.688 30.9227 30.304 30.272C29.92 29.6107 29.3973 29.088 28.736 28.704C28.0747 28.3093 27.3387 28.112 26.528 28.112C25.7173 28.112 24.9813 28.3093 24.32 28.704C23.6587 29.088 23.136 29.6107 22.752 30.272C22.368 30.9227 22.176 31.6587 22.176 32.48V40.464C22.176 41.2747 22.368 42.0107 22.752 42.672C23.136 43.3227 23.6587 43.8453 24.32 44.24C24.9813 44.624 25.7173 44.816 26.528 44.816ZM45.8945 48.432C44.7425 48.432 43.6545 48.208 42.6305 47.76C41.6065 47.312 40.7158 46.6773 39.9585 45.856C39.2118 45.0347 38.6732 44.064 38.3425 42.944L42.0705 41.936C42.3372 42.8533 42.8225 43.5627 43.5265 44.064C44.2412 44.5547 45.0252 44.7947 45.8785 44.784C46.6358 44.784 47.3132 44.608 47.9105 44.256C48.5078 43.904 48.9772 43.4293 49.3185 42.832C49.6598 42.224 49.8305 41.5467 49.8305 40.8C49.8305 39.6587 49.4625 38.704 48.7265 37.936C47.9905 37.168 47.0412 36.784 45.8785 36.784C45.5265 36.784 45.1798 36.832 44.8385 36.928C44.5078 37.024 44.1878 37.1573 43.8785 37.328L42.1185 34.288L49.8625 27.664L50.1985 28.592H39.2385V24.96H53.3665V28.608L47.1425 34.592L47.1105 33.456C48.5078 33.552 49.6972 33.9413 50.6785 34.624C51.6705 35.3067 52.4278 36.1867 52.9505 37.264C53.4838 38.3413 53.7505 39.52 53.7505 40.8C53.7505 42.2507 53.3932 43.552 52.6785 44.704C51.9745 45.856 51.0252 46.768 49.8305 47.44C48.6465 48.1013 47.3345 48.432 45.8945 48.432Z" fill="white"/>
<mask id="mask0_715_71" style="mask-type:alpha" maskUnits="userSpaceOnUse" x="0" y="0" width="72" height="72">
<circle cx="36" cy="36" r="36" fill="#661CE7"/>
</mask>
<g mask="url(#mask0_715_71)">
<circle cx="36" cy="72" r="21" fill="white" fill-opacity="0.24"/>
</g>
</svg>
