<svg width="24" height="24" viewBox="0 0 24 24" fill="none" xmlns="http://www.w3.org/2000/svg">
<path d="M1.87097 13C1.31869 13 0.870972 12.5523 0.870972 12C0.870972 11.4477 1.31869 11 1.87097 11L1.87097 13ZM22.7071 11.2929C23.0976 11.6834 23.0976 12.3166 22.7071 12.7071L16.3432 19.0711C15.9526 19.4616 15.3195 19.4616 14.9289 19.0711C14.5384 18.6805 14.5384 18.0474 14.9289 17.6569L20.5858 12L14.9289 6.34314C14.5384 5.95262 14.5384 5.31946 14.9289 4.92893C15.3195 4.53841 15.9526 4.53841 16.3431 4.92893L22.7071 11.2929ZM1.87097 11L22 11L22 13L1.87097 13L1.87097 11Z" fill="#1E1B1B"/>
</svg>
