<svg width="24" height="24" viewBox="0 0 24 24" fill="none" xmlns="http://www.w3.org/2000/svg">
<path d="M22.129 13C22.6813 13 23.129 12.5523 23.129 12C23.129 11.4477 22.6813 11 22.129 11L22.129 13ZM1.29289 11.2929C0.902365 11.6834 0.902365 12.3166 1.29289 12.7071L7.65685 19.0711C8.04737 19.4616 8.68054 19.4616 9.07106 19.0711C9.46159 18.6805 9.46159 18.0474 9.07106 17.6569L3.41421 12L9.07106 6.34314C9.46159 5.95262 9.46159 5.31946 9.07106 4.92893C8.68054 4.53841 8.04738 4.53841 7.65685 4.92893L1.29289 11.2929ZM22.129 11L2 11L2 13L22.129 13L22.129 11Z" fill="#1E1B1B"/>
</svg>
