<svg width="225" height="127" viewBox="0 0 225 127" fill="none" xmlns="http://www.w3.org/2000/svg">
<path d="M52.2793 61.4795C51.801 61.9624 51.4347 62.5454 51.2065 63.1867C50.9783 63.828 50.8938 64.5119 50.9591 65.1897L50.9364 65.1669C51.0035 65.9648 50.8963 66.7677 50.6223 67.5197C50.3482 68.2717 49.914 68.9546 49.3499 69.5207C48.7857 70.0869 48.1052 70.5227 47.3559 70.7977C46.6066 71.0727 45.8066 71.1803 45.0116 71.1129L45.0343 71.1357C44.0833 71.0469 43.1282 71.2546 42.2991 71.7305C41.4701 72.2064 40.8075 72.9273 40.4016 73.795C39.9958 74.6627 39.8665 75.6348 40.0314 76.579C40.1962 77.5231 40.6472 78.3932 41.3229 79.0706C41.9985 79.7481 42.8659 80.1999 43.8068 80.3645C44.7477 80.5291 45.7163 80.3985 46.5805 79.9904C47.4447 79.5823 48.1625 78.9167 48.6359 78.0842C49.1094 77.2518 49.3154 76.2931 49.2261 75.3387L49.2501 75.3616C49.183 74.5637 49.2901 73.7608 49.5642 73.0088C49.8382 72.2568 50.2724 71.5739 50.8366 71.0077C51.4007 70.4415 52.0812 70.0058 52.8305 69.7308C53.5798 69.4558 54.3798 69.3482 55.1748 69.4155L55.1509 69.3927C55.9277 69.4628 56.7096 69.335 57.4241 69.0211C58.1386 68.7072 58.7625 68.2174 59.2382 67.597C59.7138 66.9766 60.0257 66.2458 60.145 65.4723C60.2642 64.6987 60.187 63.9075 59.9204 63.1719C59.6538 62.4362 59.2065 61.7801 58.62 61.2641C58.0334 60.7482 57.3266 60.3892 56.5649 60.2205C55.8033 60.0517 55.0116 60.0786 54.2631 60.2987C53.5146 60.5188 52.8336 60.9249 52.2831 61.4795H52.2793Z" fill="#FF6433"/>
<path d="M42.9678 68.1487L42.9439 68.1259C43.6196 68.1943 44.3019 68.111 44.9417 67.8823C45.5814 67.6535 46.1624 67.2849 46.6428 66.8032C47.1232 66.3214 47.4909 65.7386 47.7193 65.0967C47.9478 64.4549 48.0312 63.7701 47.9636 63.092L47.9876 63.1148C47.9205 62.3169 48.0277 61.514 48.3017 60.762C48.5757 60.01 49.01 59.3271 49.5741 58.7609C50.1383 58.1947 50.8188 57.759 51.568 57.484C52.3173 57.209 53.1174 57.1014 53.9124 57.1687L53.8884 57.1459C54.8395 57.2356 55.7949 57.0286 56.6245 56.5532C57.454 56.0779 58.1172 55.3573 58.5236 54.4897C58.9301 53.6222 59.06 52.6499 58.8956 51.7056C58.7312 50.7612 58.2806 49.8907 57.6052 49.2129C56.9297 48.535 56.0623 48.0827 55.1214 47.9178C54.1804 47.7528 53.2116 47.8832 52.3471 48.2911C51.4827 48.699 50.7647 49.3646 50.291 50.1971C49.8174 51.0296 49.6111 51.9885 49.7004 52.9429L49.6777 52.9188C49.7451 53.7167 49.638 54.5198 49.3641 55.2719C49.0901 56.024 48.6559 56.707 48.0917 57.2732C47.5275 57.8394 46.8469 58.2752 46.0975 58.5501C45.3481 58.825 44.548 58.9325 43.7529 58.8649L43.7757 58.8889C43.1 58.8206 42.4176 58.9038 41.7779 59.1326C41.1381 59.3614 40.5571 59.73 40.0767 60.2117C39.5963 60.6935 39.2286 61.2763 39.0002 61.9182C38.7717 62.56 38.6883 63.2448 38.7559 63.9229L38.7332 63.9001C38.8 64.6979 38.6927 65.5008 38.4186 66.2527C38.1445 67.0045 37.7103 67.6874 37.1462 68.2535C36.5821 68.8196 35.9017 69.2554 35.1525 69.5305C34.4033 69.8056 33.6033 69.9133 32.8084 69.8462L32.8311 69.869C31.88 69.7793 30.9246 69.9863 30.0951 70.4617C29.2655 70.937 28.6023 71.6576 28.1959 72.5252C27.7894 73.3927 27.6595 74.365 27.8239 75.3093C27.9883 76.2537 28.4389 77.1241 29.1144 77.802C29.7898 78.4799 30.6572 78.9322 31.5982 79.0971C32.5392 79.2621 33.5079 79.1317 34.3724 78.7238C35.2368 78.3159 35.9548 77.6503 36.4285 76.8178C36.9022 75.9853 37.1084 75.0264 37.0191 74.072L37.0431 74.0948C36.976 73.2969 37.0831 72.494 37.3572 71.742C37.6312 70.99 38.0654 70.3071 38.6296 69.7409C39.1937 69.1748 39.8742 68.739 40.6235 68.464C41.3728 68.189 42.1728 68.0814 42.9678 68.1487Z" fill="#FF6433"/>
<path d="M34.5087 65.6064C34.9871 65.1235 35.3534 64.5406 35.5814 63.8992C35.8094 63.2579 35.8935 62.5739 35.8277 61.8962L35.8517 61.919C35.7846 61.1209 35.8918 60.3177 36.166 59.5655C36.4401 58.8134 36.8746 58.1303 37.439 57.5641C38.0035 56.9979 38.6843 56.5621 39.4339 56.2873C40.1835 56.0125 40.9838 55.9052 41.779 55.9729L41.7551 55.9501C42.7058 56.0395 43.6608 55.8324 44.49 55.3571C45.3191 54.8818 45.982 54.1614 46.3882 53.2941C46.7944 52.4268 46.9242 51.4549 46.7598 50.5109C46.5954 49.5669 46.1449 48.6968 45.4697 48.0191C44.7945 47.3415 43.9275 46.8894 42.9868 46.7244C42.0462 46.5595 41.0778 46.6897 40.2136 47.0974C39.3494 47.505 38.6316 48.1703 38.158 49.0024C37.6843 49.8345 37.478 50.793 37.5671 51.7471L37.5443 51.7243C37.6114 52.5222 37.5043 53.3251 37.2302 54.0771C36.9562 54.8291 36.522 55.512 35.9578 56.0782C35.3937 56.6443 34.7132 57.0801 33.9639 57.3551C33.2146 57.6301 32.4146 57.7377 31.6196 57.6703L31.6423 57.6932C30.8655 57.6232 30.0837 57.7512 29.3693 58.0653C28.6549 58.3793 28.0311 58.8693 27.5556 59.4897C27.0801 60.1101 26.7683 60.841 26.6492 61.6145C26.5301 62.388 26.6075 63.1792 26.8741 63.9147C27.1408 64.6503 27.5882 65.3063 28.1747 65.8222C28.7613 66.338 29.4682 66.6969 30.2297 66.8656C30.9913 67.0343 31.783 67.0073 32.5315 66.7872C33.2799 66.5671 33.9609 66.161 34.5113 65.6064H34.5087Z" fill="#FF6433"/>
<path d="M73.6078 52.972H77.3566V71.2801H73.6078V52.972Z" fill="#1E1B1B"/>
<path d="M79.4797 65.011C79.4744 63.6953 79.8584 62.4077 80.5829 61.3112C81.3074 60.2147 82.3399 59.3586 83.5496 58.8515C84.7593 58.3444 86.0917 58.2089 87.3782 58.4624C88.6646 58.7158 89.8472 59.3467 90.776 60.2752C91.7049 61.2037 92.3383 62.3879 92.596 63.6779C92.8537 64.968 92.7241 66.3057 92.2236 67.5218C91.7231 68.7378 90.8743 69.7774 89.7846 70.5089C88.6949 71.2405 87.4134 71.6309 86.1025 71.631C85.2322 71.6409 84.3687 71.4767 83.5625 71.1479C82.7562 70.819 82.0234 70.3322 81.4067 69.7159C80.7901 69.0995 80.3021 68.366 79.9712 67.5582C79.6403 66.7503 79.4732 65.8844 79.4797 65.011ZM88.9765 65.011C88.9609 64.4439 88.779 63.894 88.4536 63.4301C88.1283 62.9661 87.6739 62.6087 87.1473 62.4025C86.6206 62.1963 86.0451 62.1505 85.4926 62.2708C84.9402 62.3911 84.4353 62.6722 84.0412 63.0789C83.647 63.4855 83.3811 63.9998 83.2765 64.5574C83.172 65.1149 83.2336 65.691 83.4536 66.2136C83.6735 66.7363 84.0421 67.1822 84.5133 67.4957C84.9844 67.8093 85.5372 67.9765 86.1025 67.9764C86.4896 67.9868 86.8747 67.9166 87.2334 67.7701C87.5922 67.6237 87.9168 67.4043 88.1868 67.1257C88.4569 66.847 88.6664 66.5153 88.8024 66.1513C88.9383 65.7874 88.9976 65.3991 88.9765 65.011Z" fill="#1E1B1B"/>
<path d="M107.666 58.7407V70.648C107.666 74.8611 104.392 76.6422 101.068 76.6422C99.8983 76.7301 98.7266 76.4928 97.6819 75.9566C96.6373 75.4203 95.7599 74.6057 95.1461 73.602L98.3446 71.7463C98.6026 72.2694 99.0136 72.701 99.5227 72.9833C100.032 73.2656 100.615 73.3851 101.193 73.3259C101.563 73.3773 101.94 73.3446 102.295 73.2302C102.651 73.1159 102.976 72.9227 103.247 72.6651C103.518 72.4075 103.728 72.092 103.862 71.742C103.995 71.3919 104.048 71.0163 104.017 70.6429V69.4965C103.578 70.0356 103.019 70.4638 102.385 70.747C101.752 71.0301 101.061 71.1602 100.368 71.1268C98.7192 71.0746 97.1554 70.3807 96.0076 69.1918C94.8597 68.003 94.2179 66.4125 94.2179 64.7571C94.2179 63.1017 94.8597 61.5112 96.0076 60.3223C97.1554 59.1335 98.7192 58.4395 100.368 58.3873C101.061 58.354 101.752 58.4841 102.385 58.7672C103.019 59.0503 103.578 59.4786 104.017 60.0176V58.7382L107.666 58.7407ZM104.018 64.759C104.043 64.1527 103.887 63.5527 103.57 63.0362C103.252 62.5197 102.788 62.1104 102.237 61.8609C101.686 61.6115 101.073 61.5332 100.477 61.6364C99.8809 61.7395 99.3294 62.0192 98.8933 62.4395C98.4571 62.8599 98.1563 63.4016 98.0295 63.9949C97.9028 64.5883 97.9558 65.2061 98.1819 65.769C98.408 66.3318 98.7967 66.8138 99.2981 67.1531C99.7995 67.4923 100.391 67.6732 100.995 67.6725C101.389 67.7 101.784 67.6445 102.156 67.5095C102.527 67.3745 102.866 67.1629 103.15 66.8884C103.435 66.614 103.66 66.2827 103.809 65.9159C103.958 65.5492 104.03 65.1551 104.018 64.759Z" fill="#1E1B1B"/>
<path d="M109.789 65.011C109.784 63.6953 110.168 62.4077 110.892 61.3112C111.617 60.2147 112.649 59.3586 113.859 58.8515C115.068 58.3444 116.401 58.2089 117.687 58.4624C118.974 58.7158 120.156 59.3467 121.085 60.2752C122.014 61.2037 122.647 62.3879 122.905 63.6779C123.163 64.968 123.033 66.3057 122.533 67.5218C122.032 68.7378 121.183 69.7774 120.094 70.5089C119.004 71.2405 117.723 71.6309 116.412 71.631C115.541 71.6409 114.678 71.4767 113.872 71.1479C113.065 70.819 112.333 70.3322 111.716 69.7159C111.099 69.0995 110.611 68.366 110.28 67.5582C109.949 66.7503 109.782 65.8844 109.789 65.011ZM119.286 65.011C119.27 64.4439 119.088 63.894 118.763 63.4301C118.437 62.9661 117.983 62.6087 117.456 62.4025C116.93 62.1963 116.354 62.1505 115.802 62.2708C115.249 62.3911 114.744 62.6722 114.35 63.0789C113.956 63.4855 113.69 63.9998 113.586 64.5574C113.481 65.1149 113.543 65.691 113.763 66.2136C113.983 66.7363 114.351 67.1822 114.822 67.4957C115.294 67.8093 115.846 67.9765 116.412 67.9764C116.799 67.9868 117.184 67.9166 117.543 67.7701C117.901 67.6237 118.226 67.4043 118.496 67.1257C118.766 66.847 118.976 66.5153 119.112 66.1513C119.247 65.7874 119.307 65.3991 119.286 65.011Z" fill="#1E1B1B"/>
<path d="M124.783 55.3801C124.783 54.9337 124.915 54.4972 125.162 54.126C125.409 53.7548 125.76 53.4655 126.171 53.2946C126.582 53.1238 127.035 53.0791 127.471 53.1662C127.907 53.2533 128.308 53.4683 128.622 53.784C128.937 54.0996 129.151 54.5019 129.238 54.9397C129.325 55.3776 129.28 55.8315 129.11 56.244C128.94 56.6564 128.652 57.009 128.282 57.257C127.912 57.505 127.477 57.6374 127.032 57.6374C126.437 57.6315 125.869 57.3918 125.448 56.9697C125.028 56.5477 124.789 55.977 124.783 55.3801ZM125.161 58.7407H128.911V71.2814H125.156L125.161 58.7407Z" fill="#1E1B1B"/>
<path d="M145.098 65.011C145.141 65.8398 145.021 66.669 144.744 67.451C144.467 68.2329 144.038 68.9522 143.483 69.5674C142.928 70.1826 142.257 70.6816 141.509 71.0358C140.761 71.3899 139.951 71.5922 139.125 71.6309C138.43 71.669 137.736 71.5514 137.092 71.2867C136.448 71.0221 135.871 70.6169 135.403 70.1007V76.2963H131.654V58.7407H135.403V59.9187C135.872 59.4029 136.449 58.9981 137.092 58.7337C137.736 58.4692 138.431 58.3518 139.125 58.3898C139.951 58.4284 140.762 58.6306 141.51 58.9847C142.258 59.3389 142.929 59.838 143.484 60.4534C144.039 61.0688 144.467 61.7883 144.744 62.5705C145.021 63.3526 145.142 64.1821 145.098 65.011ZM141.349 65.011C141.334 64.4241 141.148 63.8546 140.812 63.3737C140.476 62.8928 140.007 62.5219 139.462 62.3075C138.918 62.0931 138.322 62.0446 137.75 62.1682C137.179 62.2917 136.656 62.5818 136.247 63.0021C135.839 63.4225 135.563 63.9544 135.454 64.5312C135.346 65.1081 135.409 65.7043 135.636 66.2453C135.864 66.7863 136.245 67.2479 136.732 67.5725C137.22 67.8971 137.792 68.0702 138.377 68.0702C138.778 68.0881 139.179 68.0206 139.553 67.8722C139.927 67.7238 140.265 67.4977 140.546 67.2089C140.826 66.92 141.043 66.5749 141.182 66.1961C141.32 65.8173 141.377 65.4135 141.349 65.011Z" fill="#1E1B1B"/>
<path d="M156.666 67.5179C156.666 70.4022 154.168 71.6309 151.469 71.6309C150.379 71.7301 149.284 71.4986 148.326 70.9666C147.368 70.4346 146.591 69.6264 146.096 68.6465L149.344 66.7908C149.475 67.2437 149.757 67.6377 150.143 67.9069C150.529 68.1762 150.996 68.3045 151.464 68.2703C152.363 68.2703 152.814 67.9942 152.814 67.4938C152.814 66.1131 146.665 66.8414 146.665 62.5029C146.665 59.768 148.965 58.3898 151.564 58.3898C152.541 58.3588 153.508 58.5914 154.365 59.0633C155.222 59.5351 155.937 60.2291 156.436 61.0728L153.238 62.8031C153.097 62.4746 152.864 62.1948 152.566 61.9986C152.269 61.8024 151.92 61.6985 151.564 61.6998C150.914 61.6998 150.514 61.9531 150.514 62.4016C150.519 63.8317 156.666 62.8779 156.666 67.5179Z" fill="#1E1B1B"/>
<path d="M170.36 58.7407V71.2814H166.611V70.102C166.179 70.6224 165.629 71.0324 165.008 71.2984C164.387 71.5644 163.712 71.6788 163.039 71.6322C160.515 71.6322 158.369 69.8271 158.369 66.4386V58.7407H162.118V65.8876C162.086 66.1863 162.12 66.4882 162.217 66.7724C162.313 67.0567 162.471 67.3163 162.678 67.5333C162.884 67.7503 163.136 67.9195 163.415 68.0291C163.693 68.1386 163.992 68.1859 164.291 68.1677C165.666 68.1677 166.615 67.3659 166.615 65.5849V58.7445L170.36 58.7407Z" fill="#1E1B1B"/>
<path d="M191.855 63.581V71.2802H188.106V63.9066C188.106 62.6525 187.507 61.8507 186.308 61.8507C185.058 61.8507 184.358 62.7285 184.358 64.208V71.2802H180.61V63.9066C180.61 62.6525 180.011 61.8507 178.81 61.8507C177.561 61.8507 176.861 62.7285 176.861 64.208V71.2802H173.113V58.7396H176.861V59.8923C177.25 59.3809 177.76 58.9753 178.345 58.7127C178.93 58.45 179.571 58.3386 180.21 58.3887C180.851 58.3572 181.49 58.493 182.064 58.783C182.637 59.0729 183.126 59.507 183.483 60.043C183.898 59.4823 184.449 59.0364 185.082 58.7471C185.716 58.4578 186.413 58.3345 187.107 58.3887C189.976 58.39 191.855 60.4459 191.855 63.581Z" fill="#1E1B1B"/>
<path d="M195.026 58.6635C196.562 58.6635 197.807 57.4135 197.807 55.8716C197.807 54.3297 196.562 53.0797 195.026 53.0797C193.489 53.0797 192.244 54.3297 192.244 55.8716C192.244 57.4135 193.489 58.6635 195.026 58.6635Z" fill="#1E1B1B"/>
</svg>
