<svg width="225" height="127" viewBox="0 0 225 127" fill="none" xmlns="http://www.w3.org/2000/svg">
<path d="M85.9094 72.8853C85.1566 72.9262 84.4121 72.7115 83.7958 72.2757C83.5383 72.0841 83.3312 71.8326 83.1923 71.5427C83.0533 71.2528 82.9868 70.9334 82.9985 70.612V58.8391C82.9923 58.7892 82.9976 58.7386 83.0139 58.6911C83.0301 58.6436 83.057 58.6005 83.0924 58.565C83.1278 58.5295 83.1708 58.5025 83.2181 58.4862C83.2654 58.4699 83.3159 58.4646 83.3655 58.4708H85.4918C85.7322 58.4708 85.8461 58.5978 85.8461 58.8391V69.6976C85.8461 70.1802 86.0613 70.4215 86.5042 70.4215C86.692 70.4292 86.8799 70.4078 87.0611 70.358C87.3142 70.358 87.4534 70.4342 87.4661 70.6628L87.6559 72.2503C87.6651 72.2965 87.6642 72.3443 87.6534 72.3902C87.6426 72.4361 87.6221 72.4792 87.5933 72.5165C87.5645 72.5538 87.5281 72.5844 87.4865 72.6064C87.4449 72.6284 87.3991 72.6412 87.3522 72.644C86.8865 72.7983 86.3998 72.8797 85.9094 72.8853V72.8853Z" fill="#1E1B1B"/>
<path d="M97.8695 71.5264C96.8011 72.4121 95.4585 72.8967 94.0727 72.8967C92.6868 72.8967 91.3442 72.4121 90.2758 71.5264C89.3368 70.5751 88.81 69.2903 88.81 67.9513C88.81 66.6124 89.3368 65.3275 90.2758 64.3763C91.3463 63.495 92.6881 63.0134 94.0727 63.0134C95.4573 63.0134 96.799 63.495 97.8695 64.3763C98.7869 65.3363 99.2991 66.6149 99.2991 67.945C99.2991 69.275 98.7869 70.5536 97.8695 71.5137V71.5264ZM92.2755 69.85C92.7713 70.3006 93.4164 70.5502 94.0853 70.5502C94.7543 70.5502 95.3993 70.3006 95.8951 69.85C96.3439 69.3322 96.591 68.6692 96.591 67.9831C96.591 67.2969 96.3439 66.6339 95.8951 66.1162C95.3993 65.6655 94.7543 65.4159 94.0853 65.4159C93.4164 65.4159 92.7713 65.6655 92.2755 66.1162C91.8268 66.6339 91.5796 67.2969 91.5796 67.9831C91.5796 68.6692 91.8268 69.3322 92.2755 69.85Z" fill="#1E1B1B"/>
<path d="M111.006 63.3348C111.247 63.3348 111.361 63.4618 111.361 63.7031V72.809C111.383 73.4236 111.268 74.0354 111.025 74.6C110.782 75.1646 110.417 75.6677 109.956 76.0729C108.933 76.9485 107.617 77.4023 106.273 77.3429C105.06 77.3857 103.862 77.0532 102.843 76.3904C102.408 76.1037 102.036 75.7303 101.751 75.2933C101.466 74.8563 101.273 74.3652 101.185 73.8504C101.185 73.5964 101.185 73.4821 101.527 73.4821H103.653C103.744 73.4852 103.831 73.5144 103.905 73.5662C103.979 73.6181 104.037 73.6903 104.071 73.7742C104.209 74.1599 104.484 74.481 104.843 74.6759C105.281 74.9026 105.768 75.0161 106.26 75.0061C106.558 75.0224 106.855 74.9792 107.135 74.8789C107.416 74.7786 107.673 74.6232 107.893 74.4219C108.094 74.2113 108.25 73.9621 108.352 73.6892C108.455 73.4164 108.501 73.1256 108.488 72.8344V72.0343C107.727 72.5962 106.8 72.8867 105.855 72.8598C105.194 72.8839 104.535 72.7737 103.917 72.5359C103.3 72.298 102.736 71.9373 102.261 71.4755C101.349 70.5283 100.839 69.2623 100.839 67.9449C100.839 66.6275 101.349 65.3616 102.261 64.4143C102.739 63.9566 103.303 63.5994 103.92 63.3638C104.537 63.1283 105.195 63.0191 105.855 63.0427C106.827 63.017 107.779 63.3262 108.551 63.919V63.7158C108.545 63.6671 108.55 63.6178 108.566 63.5713C108.582 63.5249 108.607 63.4824 108.641 63.4472C108.675 63.4119 108.716 63.3847 108.762 63.3674C108.808 63.3502 108.857 63.3434 108.906 63.3475L111.006 63.3348ZM106.096 70.5992C106.422 70.6093 106.746 70.5475 107.046 70.418C107.345 70.2885 107.613 70.0946 107.83 69.8499C108.251 69.3046 108.479 68.6345 108.479 67.9449C108.479 67.2553 108.251 66.5852 107.83 66.0399C107.614 65.7985 107.348 65.6075 107.05 65.4802C106.753 65.353 106.432 65.2926 106.109 65.3033C105.779 65.2929 105.451 65.3545 105.147 65.4839C104.843 65.6133 104.571 65.8073 104.349 66.0526C103.883 66.5742 103.638 67.2576 103.666 67.9576C103.643 68.6508 103.883 69.3269 104.337 69.8499C104.559 70.0945 104.831 70.2881 105.135 70.4174C105.438 70.5468 105.766 70.6088 106.096 70.5992V70.5992Z" fill="#1E1B1B"/>
<path d="M122.283 71.5263C121.213 72.4075 119.871 72.8891 118.486 72.8891C117.102 72.8891 115.76 72.4075 114.689 71.5263C113.771 70.5642 113.259 69.2834 113.259 67.9513C113.259 66.6191 113.771 65.3384 114.689 64.3762C115.761 63.4973 117.102 63.0171 118.486 63.0171C119.87 63.0171 121.212 63.4973 122.283 64.3762C123.2 65.3362 123.713 66.6148 123.713 67.9449C123.713 69.275 123.2 70.5536 122.283 71.5136V71.5263ZM116.676 69.8499C116.919 70.0815 117.205 70.2625 117.518 70.3824C117.831 70.5023 118.164 70.5587 118.499 70.5484C118.831 70.5571 119.163 70.4998 119.473 70.38C119.784 70.2601 120.068 70.08 120.309 69.8499C120.75 69.3287 120.992 68.667 120.992 67.983C120.992 67.299 120.75 66.6373 120.309 66.1161C120.068 65.886 119.784 65.7059 119.473 65.5861C119.163 65.4662 118.831 65.409 118.499 65.4176C118.164 65.4073 117.831 65.4637 117.518 65.5836C117.205 65.7035 116.919 65.8845 116.676 66.1161C116.235 66.6373 115.993 67.299 115.993 67.983C115.993 68.667 116.235 69.3287 116.676 69.8499V69.8499Z" fill="#1E1B1B"/>
<path d="M128.282 61.1759C127.947 61.4698 127.518 61.6318 127.073 61.6318C126.629 61.6318 126.199 61.4698 125.865 61.1759C125.713 61.0323 125.592 60.8591 125.51 60.6669C125.427 60.4747 125.384 60.2676 125.384 60.0583C125.384 59.8491 125.427 59.642 125.51 59.4498C125.592 59.2576 125.713 59.0844 125.865 58.9407C126.203 58.6542 126.631 58.4971 127.073 58.4971C127.516 58.4971 127.944 58.6542 128.282 58.9407C128.434 59.0844 128.555 59.2576 128.637 59.4498C128.72 59.642 128.762 59.8491 128.762 60.0583C128.762 60.2676 128.72 60.4747 128.637 60.6669C128.555 60.8591 128.434 61.0323 128.282 61.1759V61.1759ZM128.548 72.8853C127.795 72.9224 127.052 72.708 126.434 72.2757C126.181 72.0814 125.977 71.8289 125.841 71.5395C125.704 71.2501 125.639 70.9321 125.65 70.612V63.7032C125.643 63.6534 125.649 63.6028 125.665 63.5553C125.681 63.5078 125.708 63.4647 125.743 63.4291C125.779 63.3936 125.822 63.3667 125.869 63.3504C125.916 63.334 125.967 63.3288 126.017 63.3349H128.143C128.383 63.3349 128.497 63.4619 128.497 63.7032V69.6976C128.497 70.1802 128.712 70.4215 129.143 70.4215C129.335 70.4285 129.526 70.4071 129.712 70.358C129.965 70.358 130.104 70.4342 130.117 70.6628L130.307 72.2503C130.316 72.2966 130.315 72.3443 130.304 72.3902C130.294 72.4362 130.273 72.4792 130.244 72.5165C130.216 72.5538 130.179 72.5845 130.138 72.6065C130.096 72.6285 130.05 72.6413 130.003 72.644C129.533 72.7993 129.042 72.8807 128.548 72.8853V72.8853Z" fill="#1E1B1B"/>
<path d="M138.129 63.0301C138.793 63.0038 139.456 63.1117 140.077 63.3473C140.699 63.5829 141.267 63.9415 141.749 64.4017C142.643 65.3656 143.141 66.634 143.141 67.9514C143.141 69.2688 142.643 70.5372 141.749 71.501C141.27 71.9654 140.702 72.3275 140.08 72.5654C139.458 72.8034 138.794 72.9122 138.129 72.8853C137.181 72.9065 136.252 72.6167 135.484 72.0598V76.6445C135.484 76.8858 135.357 77.0001 135.117 77.0001H132.99C132.942 77.0092 132.892 77.0063 132.845 76.9917C132.798 76.977 132.755 76.9511 132.72 76.9161C132.685 76.881 132.659 76.838 132.645 76.7907C132.63 76.7434 132.627 76.6932 132.636 76.6445V66.2305C132.651 66.1287 132.642 66.0247 132.61 65.927C132.577 65.8293 132.523 65.7405 132.45 65.6677C132.378 65.5949 132.289 65.5401 132.192 65.5077C132.095 65.4754 131.991 65.4663 131.889 65.4812H131.472C131.193 65.4812 131.054 65.3796 131.054 65.1764V63.6778C131.048 63.5851 131.073 63.4929 131.126 63.4167C131.179 63.3404 131.256 63.2847 131.345 63.2587C131.783 63.0991 132.246 63.0216 132.712 63.0301C133.177 62.9889 133.643 63.0877 134.051 63.314C134.459 63.5403 134.79 63.8836 135.003 64.3001C135.41 63.8863 135.898 63.5603 136.435 63.3419C136.973 63.1236 137.549 63.0175 138.129 63.0301ZM136.155 69.85C136.38 70.0867 136.651 70.275 136.951 70.4037C137.252 70.5324 137.575 70.5987 137.901 70.5987C138.227 70.5987 138.551 70.5324 138.851 70.4037C139.151 70.275 139.422 70.0867 139.648 69.85C140.123 69.318 140.373 68.6209 140.344 67.9069C140.377 67.1924 140.127 66.4937 139.648 65.9638C139.422 65.7272 139.151 65.5388 138.851 65.4102C138.551 65.2815 138.227 65.2152 137.901 65.2152C137.575 65.2152 137.252 65.2815 136.951 65.4102C136.651 65.5388 136.38 65.7272 136.155 65.9638C135.694 66.5031 135.454 67.1974 135.484 67.9069C135.458 68.6159 135.697 69.3089 136.155 69.85Z" fill="#1E1B1B"/>
<path d="M149.114 72.8852C147.978 72.9321 146.851 72.6594 145.861 72.0978C145.464 71.8578 145.126 71.531 144.872 71.1419C144.618 70.7528 144.454 70.3112 144.393 69.8499C144.393 69.5959 144.482 69.4689 144.76 69.4689H146.621C146.709 69.4724 146.795 69.5003 146.869 69.5496C146.943 69.5989 147.001 69.6677 147.038 69.7483C147.304 70.4341 148 70.777 149.114 70.777C149.503 70.7948 149.889 70.7163 150.24 70.5484C150.362 70.4935 150.466 70.4066 150.541 70.297C150.617 70.1874 150.662 70.0592 150.671 69.9261C150.671 69.5959 150.468 69.3673 150.063 69.2149C149.583 69.0545 149.086 68.948 148.583 68.8974C147.986 68.8296 147.394 68.7236 146.811 68.5799C146.243 68.4511 145.728 68.1547 145.33 67.729C145.096 67.4397 144.923 67.1051 144.823 66.746C144.723 66.3869 144.698 66.0111 144.749 65.6418C144.8 65.2726 144.926 64.9178 145.12 64.5996C145.314 64.2813 145.57 64.0065 145.874 63.792C146.786 63.2089 147.857 62.9249 148.937 62.9792C149.983 62.9437 151.018 63.2033 151.924 63.7285C152.289 63.9361 152.603 64.2228 152.844 64.5677C153.085 64.9126 153.246 65.3071 153.316 65.7224C153.316 65.9764 153.202 66.1034 152.974 66.1034H151.101C151.022 66.1081 150.944 66.0888 150.876 66.048C150.808 66.0072 150.754 65.9469 150.721 65.8748C150.596 65.574 150.361 65.333 150.063 65.2017C149.728 65.0256 149.353 64.9382 148.975 64.9477C148.604 64.9275 148.234 65.0017 147.899 65.1636C147.781 65.2093 147.68 65.2893 147.607 65.3934C147.535 65.4976 147.496 65.621 147.494 65.7478C147.502 65.9215 147.566 66.088 147.675 66.2229C147.784 66.3577 147.934 66.4539 148.102 66.4971C148.588 66.6809 149.093 66.8088 149.608 66.8781C150.2 66.9563 150.787 67.0665 151.367 67.2083C151.934 67.3372 152.45 67.6335 152.848 68.0592C153.06 68.2937 153.225 68.5683 153.331 68.8669C153.438 69.1655 153.484 69.4824 153.468 69.7991C153.479 70.2381 153.376 70.6725 153.17 71.0598C152.963 71.4471 152.661 71.7741 152.291 72.0089C151.345 72.6181 150.237 72.9237 149.114 72.8852V72.8852Z" fill="#1E1B1B"/>
<path d="M166.845 72.2502C166.853 72.2953 166.851 72.3414 166.84 72.3858C166.829 72.4301 166.81 72.4719 166.782 72.5085C166.755 72.5452 166.721 72.5761 166.682 72.5993C166.643 72.6226 166.599 72.6377 166.554 72.6439C166.092 72.7953 165.61 72.8766 165.124 72.8852C164.643 72.9352 164.157 72.8598 163.714 72.6662C163.271 72.4726 162.884 72.1675 162.593 71.7803C161.699 72.5516 160.543 72.9473 159.366 72.8852C158.819 72.9105 158.273 72.8207 157.763 72.6217C157.253 72.4227 156.79 72.1188 156.404 71.7295C156.021 71.3217 155.723 70.8404 155.53 70.3145C155.336 69.7885 155.251 69.2288 155.278 68.6688V63.7031C155.278 63.4618 155.392 63.3348 155.632 63.3348H157.758C157.999 63.3348 158.113 63.4618 158.113 63.7031V68.2878C158.09 68.859 158.284 69.4176 158.657 69.8499C158.843 70.048 159.069 70.2037 159.32 70.3067C159.571 70.4097 159.841 70.4574 160.112 70.4468C160.39 70.459 160.667 70.4159 160.928 70.32C161.188 70.2241 161.427 70.0773 161.631 69.888C161.824 69.6886 161.974 69.4516 162.072 69.1916C162.17 68.9317 162.214 68.6543 162.201 68.3767V63.7031C162.201 63.4618 162.315 63.3348 162.555 63.3348H164.707C164.947 63.3348 165.061 63.4618 165.061 63.7031V69.6848C165.061 70.1801 165.276 70.4214 165.694 70.4214C165.89 70.4291 166.086 70.4077 166.276 70.3579C166.324 70.3445 166.374 70.3421 166.423 70.3509C166.472 70.3597 166.518 70.3795 166.558 70.4088C166.599 70.4382 166.632 70.4762 166.655 70.5202C166.678 70.5642 166.692 70.6129 166.694 70.6627L166.845 72.2502Z" fill="#1E1B1B"/>
<path d="M186.956 72.2502C186.967 72.2957 186.968 72.3431 186.959 72.3891C186.95 72.435 186.931 72.4784 186.903 72.516C186.875 72.5537 186.839 72.5846 186.798 72.6068C186.757 72.6289 186.711 72.6416 186.665 72.6439C186.194 72.7975 185.704 72.8788 185.209 72.8852C184.457 72.9242 183.713 72.7096 183.096 72.2756C182.829 72.0897 182.612 71.8406 182.464 71.5504C182.316 71.2602 182.242 70.9378 182.248 70.6119V67.6274C182.274 67.0579 182.084 66.4996 181.716 66.0653C181.538 65.8668 181.319 65.7103 181.074 65.6071C180.829 65.5039 180.564 65.4565 180.299 65.4684C180.059 65.4594 179.821 65.5049 179.602 65.6017C179.382 65.6985 179.188 65.844 179.033 66.0272C178.699 66.4528 178.528 66.9846 178.552 67.5258V72.2121C178.552 72.4534 178.438 72.5804 178.198 72.5804H176.059C176.009 72.5866 175.959 72.5813 175.911 72.565C175.864 72.5487 175.821 72.5217 175.786 72.4862C175.75 72.4507 175.723 72.4076 175.707 72.3601C175.691 72.3126 175.686 72.262 175.692 72.2121V67.6274C175.719 67.0642 175.544 66.5097 175.198 66.0653C175.044 65.8787 174.85 65.7284 174.632 65.6252C174.413 65.5221 174.174 65.4685 173.933 65.4684C173.674 65.458 173.417 65.5024 173.177 65.5987C172.937 65.6949 172.72 65.841 172.54 66.0272C172.178 66.4392 171.992 66.9774 172.021 67.5258V72.2121C172.028 72.262 172.022 72.3126 172.006 72.3601C171.99 72.4076 171.963 72.4507 171.928 72.4862C171.892 72.5217 171.849 72.5487 171.802 72.565C171.755 72.5813 171.704 72.5866 171.654 72.5804H169.592C169.351 72.5804 169.237 72.4534 169.237 72.2121V66.2304C169.252 66.1286 169.243 66.0246 169.211 65.9269C169.178 65.8292 169.124 65.7404 169.051 65.6676C168.979 65.5948 168.89 65.54 168.793 65.5076C168.696 65.4753 168.592 65.4662 168.49 65.4811H168.073C167.794 65.4811 167.655 65.3795 167.655 65.1763V63.6777C167.649 63.585 167.674 63.4928 167.727 63.4166C167.78 63.3403 167.857 63.2846 167.946 63.2586C168.384 63.099 168.847 63.0215 169.313 63.03C169.76 62.9918 170.209 63.0812 170.608 63.288C171.006 63.4947 171.338 63.8103 171.566 64.1984C171.993 63.7923 172.499 63.479 173.052 63.278C173.605 63.0769 174.193 62.9925 174.781 63.03C175.351 63.0021 175.919 63.1094 176.441 63.3433C176.962 63.5772 177.421 63.9311 177.78 64.3762C178.199 63.9194 178.714 63.5617 179.287 63.3289C179.861 63.0961 180.478 62.994 181.096 63.03C181.648 63.0041 182.2 63.0934 182.716 63.2923C183.233 63.4913 183.702 63.7955 184.095 64.1857C184.48 64.5927 184.778 65.0739 184.972 65.6001C185.165 66.1262 185.25 66.6863 185.222 67.2464V69.6975C185.222 70.1801 185.437 70.4214 185.842 70.4214C186.038 70.4306 186.234 70.4092 186.424 70.3579C186.686 70.3579 186.825 70.4595 186.842 70.6627L186.956 72.2502Z" fill="#1E1B1B"/>
<path d="M38.5505 61.684C39.4842 57.918 41.6467 54.5738 44.6936 52.1837C47.7406 49.7937 51.4968 48.4954 55.3641 48.4954C59.2315 48.4954 62.9877 49.7937 66.0346 52.1837C69.0815 54.5738 71.244 57.918 72.1777 61.684H70.659C68.097 61.6461 65.5875 62.4144 63.483 63.8811C63.3615 63.9693 63.2347 64.0499 63.1033 64.1224H62.9261C62.7947 64.0499 62.6679 63.9693 62.5464 63.8811C60.4232 62.4484 57.9227 61.6832 55.3641 61.6832C52.8055 61.6832 50.305 62.4484 48.1818 63.8811C48.0603 63.9693 47.9335 64.0499 47.8021 64.1224H47.6249C47.4935 64.0499 47.3667 63.9693 47.2452 63.8811C45.1407 62.4144 42.6312 61.6461 40.0692 61.684H38.5505ZM67.9253 69.6469C68.7049 69.0376 69.6712 68.7189 70.659 68.7452H72.6966V64.6685H70.659C68.9191 64.6473 67.2189 65.1908 65.8117 66.2179C65.0198 66.8037 64.0618 67.1198 63.078 67.1198C62.0942 67.1198 61.1362 66.8037 60.3443 66.2179C58.9014 65.2099 57.1855 64.6696 55.4274 64.6696C53.6693 64.6696 51.9534 65.2099 50.5105 66.2179C49.7186 66.8037 48.7606 67.1198 47.7768 67.1198C46.793 67.1198 45.835 66.8037 45.0431 66.2179C43.6185 65.1776 41.894 64.6335 40.1325 64.6685H38.0316V68.7452H40.0692C41.0571 68.7189 42.0233 69.0376 42.8029 69.6469C44.2432 70.6554 45.9572 71.1962 47.7135 71.1962C49.4698 71.1962 51.1838 70.6554 52.6241 69.6469C53.4047 69.0395 54.3703 68.721 55.3578 68.7452C56.3459 68.7167 57.3129 69.0357 58.0915 69.6469C59.5344 70.6548 61.2503 71.1951 63.0084 71.1951C64.7665 71.1951 66.4824 70.6548 67.9253 69.6469V69.6469ZM67.9253 76.9367C68.7049 76.3274 69.6712 76.0087 70.659 76.035H72.6966V71.9583H70.659C68.9191 71.9371 67.2189 72.4806 65.8117 73.5077C65.0198 74.0935 64.0618 74.4096 63.078 74.4096C62.0942 74.4096 61.1362 74.0935 60.3443 73.5077C58.9014 72.4998 57.1855 71.9595 55.4274 71.9595C53.6693 71.9595 51.9534 72.4998 50.5105 73.5077C49.7186 74.0935 48.7606 74.4096 47.7768 74.4096C46.793 74.4096 45.835 74.0935 45.0431 73.5077C43.6185 72.4675 41.894 71.9233 40.1325 71.9583H38.0316V76.035H40.0692C41.0571 76.0087 42.0233 76.3274 42.8029 76.9367C44.2432 77.9452 45.9572 78.486 47.7135 78.486C49.4698 78.486 51.1838 77.9452 52.6241 76.9367C53.4047 76.3293 54.3703 76.0108 55.3578 76.035C56.3459 76.0065 57.3129 76.3255 58.0915 76.9367C59.5344 77.9446 61.2503 78.4849 63.0084 78.4849C64.7665 78.4849 66.4824 77.9446 67.9253 76.9367V76.9367Z" fill="#FF6433"/>
</svg>
