<svg width="225" height="127" viewBox="0 0 225 127" fill="none" xmlns="http://www.w3.org/2000/svg">
<path d="M77.8475 56.2101H81.9101V72.7201H77.8475V56.2101ZM83.5301 66.5098C83.5301 62.4204 86.0613 59.9693 89.8582 59.9693C93.655 59.9693 96.1862 62.4204 96.1862 66.5098C96.1862 70.5992 93.7436 73.0757 89.8582 73.0757C85.9727 73.0757 83.5301 70.6881 83.5301 66.5098ZM92.1616 66.5098C92.1616 64.2619 91.2883 62.9411 89.8961 62.9411C88.504 62.9411 87.6434 64.2111 87.6434 66.5098C87.6434 68.8085 88.504 70.0658 89.8961 70.0658C91.2883 70.0658 92.1869 68.8085 92.1869 66.5225L92.1616 66.5098ZM97.8062 73.571H101.73C101.908 73.9949 102.22 74.3485 102.618 74.5778C103.015 74.8071 103.477 74.8996 103.932 74.841C105.488 74.841 106.298 74.0028 106.298 72.7582V70.4722H106.311C105.976 71.1841 105.434 71.7773 104.756 72.174C104.078 72.5708 103.297 72.7523 102.514 72.6947C99.5401 72.6947 97.5657 70.4214 97.5657 66.5098C97.5657 62.5982 99.4515 60.1598 102.628 60.1598C103.431 60.1167 104.227 60.3245 104.907 60.7543C105.587 61.1842 106.117 61.8151 106.425 62.5601H106.311V60.2614H110.336V72.6312C110.336 75.6157 107.703 77.4826 103.83 77.4826C100.312 77.4699 98.0593 75.857 97.8315 73.5837L97.8062 73.571ZM106.311 66.5098C106.311 64.5159 105.4 63.2586 103.957 63.2586C102.514 63.2586 101.628 64.5286 101.628 66.5098C101.628 68.491 102.502 69.6594 103.957 69.6594C105.413 69.6594 106.311 68.5799 106.311 66.5098ZM111.943 66.5098C111.943 62.4204 114.474 59.9693 118.271 59.9693C122.068 59.9693 124.599 62.4204 124.599 66.5098C124.599 70.5992 122.144 73.0757 118.271 73.0757C114.398 73.0757 111.968 70.6881 111.968 66.5098H111.943ZM120.575 66.5098C120.575 64.2619 119.689 62.9411 118.309 62.9411C116.93 62.9411 116.056 64.2111 116.056 66.5098C116.056 68.8085 116.917 70.0658 118.309 70.0658C119.701 70.0658 120.6 68.8085 120.6 66.5225L120.575 66.5098ZM126.244 57.2515C126.227 56.8363 126.333 56.4252 126.55 56.0712C126.767 55.7172 127.085 55.4364 127.462 55.2651C127.84 55.0937 128.26 55.0396 128.668 55.1096C129.076 55.1797 129.454 55.3707 129.753 55.6581C130.053 55.9455 130.259 56.3162 130.347 56.7225C130.434 57.1287 130.399 57.552 130.245 57.9378C130.09 58.3236 129.825 58.6543 129.482 58.8873C129.139 59.1203 128.734 59.2451 128.32 59.2454C128.055 59.2522 127.792 59.2061 127.545 59.1099C127.298 59.0136 127.073 58.8692 126.882 58.6849C126.691 58.5006 126.539 58.2801 126.434 58.0362C126.329 57.7923 126.273 57.5299 126.27 57.2642L126.244 57.2515ZM126.244 60.2487H130.358V72.7709H126.308L126.244 60.2487ZM145.153 66.5098C145.153 70.5865 143.33 72.9487 140.229 72.9487C139.436 72.9979 138.646 72.8014 137.967 72.3857C137.288 71.9701 136.752 71.3554 136.433 70.6246H136.357V76.7968H132.294V60.2868H136.331V62.522H136.407C136.716 61.7769 137.246 61.1454 137.926 60.7136C138.605 60.2818 139.401 60.0707 140.204 60.109C143.393 60.0836 145.229 62.4331 145.229 66.5225L145.153 66.5098ZM141.014 66.5098C141.014 64.5286 140.09 63.2459 138.66 63.2459C137.23 63.2459 136.331 64.5159 136.319 66.5098C136.306 68.5037 137.23 69.761 138.66 69.761C140.09 69.761 141.09 68.5799 141.09 66.5225L141.014 66.5098ZM152.088 59.9566C155.493 59.9566 157.606 61.5695 157.632 64.1603H153.923C153.923 63.2586 153.177 62.6998 152.063 62.6998C150.949 62.6998 150.418 63.1316 150.418 63.7793C150.418 64.427 150.886 64.6302 151.822 64.8207L154.43 65.3541C156.961 65.8875 157.973 66.9035 157.973 68.7958C157.973 71.3358 155.632 73.063 152.151 73.063C148.671 73.063 146.406 71.3866 146.241 68.8339H150.177C150.291 69.761 151.025 70.3071 152.215 70.3071C153.404 70.3071 153.961 69.9261 153.961 69.253C153.961 68.5799 153.582 68.4656 152.607 68.2624L150.253 67.7671C147.81 67.2464 146.532 65.9637 146.532 64.046C146.608 61.5568 148.734 59.9693 152.164 59.9693L152.088 59.9566ZM171.579 72.7582H167.643V70.4087H167.567C167.346 71.1924 166.866 71.8773 166.206 72.3506C165.546 72.8239 164.744 73.0573 163.934 73.0122C163.323 73.0322 162.714 72.9222 162.147 72.6893C161.581 72.4565 161.07 72.1061 160.648 71.6612C160.226 71.2162 159.903 70.6868 159.699 70.1076C159.496 69.5284 159.416 68.9126 159.467 68.3005V60.2614H163.529V67.4242C163.529 68.8974 164.301 69.6975 165.567 69.6975C165.864 69.6953 166.157 69.6291 166.426 69.5036C166.695 69.378 166.935 69.1959 167.128 68.9696C167.321 68.7432 167.463 68.478 167.546 68.1917C167.628 67.9054 167.648 67.6047 167.605 67.3099V60.2614H171.655L171.579 72.7582ZM173.54 60.2487H177.489V62.6617H177.578C177.796 61.8887 178.263 61.2101 178.907 60.7322C179.55 60.2542 180.333 60.0038 181.134 60.0201C181.937 59.95 182.738 60.1832 183.38 60.6741C184.021 61.165 184.457 61.8782 184.602 62.6744H184.779C185.032 61.874 185.541 61.1798 186.228 60.6998C186.914 60.2198 187.74 59.9809 188.576 60.0201C189.131 59.9989 189.685 60.0957 190.201 60.3041C190.717 60.5124 191.183 60.8278 191.568 61.2294C191.954 61.631 192.251 62.1099 192.44 62.6347C192.629 63.1594 192.705 63.7183 192.664 64.2746V72.7709H188.576V65.316C188.576 64.046 187.981 63.3348 186.829 63.3348C186.574 63.3306 186.32 63.3819 186.087 63.4851C185.853 63.5884 185.644 63.7411 185.474 63.9329C185.305 64.1247 185.179 64.351 185.105 64.5963C185.03 64.8416 185.01 65.1002 185.045 65.3541V72.7709H181.172V65.2779C181.172 64.0079 180.552 63.3348 179.438 63.3348C179.18 63.3328 178.924 63.3861 178.688 63.4914C178.453 63.5966 178.242 63.7512 178.07 63.9448C177.899 64.1385 177.771 64.3667 177.695 64.6142C177.618 64.8616 177.596 65.1226 177.628 65.3795V72.7709H173.566L173.54 60.2487Z" fill="#1E1B1B"/>
<path d="M69.811 57.2898C69.8111 54.7621 69.0505 52.2933 67.6287 50.2068C66.2069 48.1202 64.1902 46.5132 61.8428 45.5963C59.4955 44.6793 56.9269 44.4952 54.4734 45.068C52.02 45.6407 49.7961 46.9437 48.0932 48.8062H32.2984V82.258H65.6472V66.6243C66.9561 65.4495 68.0035 64.011 68.7209 62.4025C69.4384 60.7941 69.8098 59.052 69.811 57.2898V57.2898ZM63.3944 57.2898C63.3969 58.501 63.0412 59.6858 62.3725 60.6941C61.7037 61.7024 60.7518 62.489 59.6374 62.9543C58.5229 63.4195 57.296 63.5426 56.1118 63.3078C54.9277 63.0731 53.8395 62.491 52.9851 61.6355C52.1307 60.7799 51.5485 59.6892 51.3121 58.5014C51.0757 57.3136 51.1957 56.0822 51.6571 54.9629C52.1184 53.8436 52.9003 52.8868 53.9037 52.2136C54.9072 51.5404 56.0871 51.1811 57.2942 51.1811C58.9098 51.1811 60.4595 51.8243 61.6032 52.9695C62.7469 54.1147 63.391 55.6685 63.3944 57.2898V57.2898ZM59.2305 75.8191H38.715V55.2451H44.9671C44.8463 55.92 44.7828 56.6041 44.7773 57.2898C44.7806 60.62 46.1004 63.8128 48.4471 66.1675C50.7937 68.5223 53.9755 69.8467 57.2942 69.8501C57.943 69.8466 58.5905 69.7914 59.2305 69.685V75.8191Z" fill="#FF6433"/>
</svg>
