<svg width="225" height="127" viewBox="0 0 225 127" fill="none" xmlns="http://www.w3.org/2000/svg">
<path d="M80.8344 55.9689H84.6312V71.374H80.8344V55.9689ZM86.1373 65.5574C86.1373 61.7474 88.466 59.4741 92.0603 59.4741C95.6546 59.4741 97.9834 61.7474 97.9834 65.5574C97.9834 69.3674 95.7053 71.6534 92.0603 71.6534C88.4154 71.6534 86.1373 69.4309 86.1373 65.5574ZM94.1739 65.5574C94.1739 63.4619 93.3512 62.23 92.0603 62.23C90.7694 62.23 89.9594 63.5 89.9594 65.5574C89.9594 67.6148 90.7567 68.8594 92.0603 68.8594C93.3639 68.8594 94.1739 67.691 94.1739 65.5701V65.5574ZM99.4135 72.1233H103.058C103.232 72.51 103.525 72.8302 103.895 73.0361C104.264 73.2421 104.69 73.3228 105.109 73.2663C106.552 73.2663 107.311 72.4789 107.311 71.3359V69.2023H107.235C106.932 69.8562 106.442 70.4041 105.826 70.7754C105.21 71.1466 104.497 71.3242 103.78 71.2851C101.008 71.2851 99.173 69.1642 99.173 65.5193C99.173 61.8744 100.92 59.5757 103.83 59.5757C104.57 59.5466 105.301 59.7451 105.926 60.1445C106.55 60.544 107.038 61.1254 107.324 61.8109V61.8109V59.69H111.12V71.247C111.12 74.0283 108.678 75.7555 105.071 75.7555C101.717 75.7555 99.6287 74.2442 99.4135 72.136V72.1233ZM107.324 65.5447C107.324 63.6905 106.476 62.5221 105.134 62.5221C103.793 62.5221 102.97 63.6778 102.97 65.5447C102.97 67.4116 103.78 68.4657 105.134 68.4657C106.488 68.4657 107.324 67.437 107.324 65.5574V65.5447ZM112.551 65.5447C112.551 61.7347 114.879 59.4614 118.474 59.4614C122.068 59.4614 124.409 61.7347 124.409 65.5447C124.409 69.3547 122.131 71.6407 118.474 71.6407C114.816 71.6407 112.551 69.4309 112.551 65.5574V65.5447ZM120.587 65.5447C120.587 63.4492 119.765 62.2173 118.474 62.2173C117.183 62.2173 116.436 63.5 116.436 65.5701C116.436 67.6402 117.233 68.8721 118.524 68.8721C119.815 68.8721 120.587 67.691 120.587 65.5701V65.5447ZM125.852 56.9214C125.842 56.5367 125.946 56.1577 126.151 55.8325C126.356 55.5072 126.653 55.2504 127.003 55.0945C127.354 54.9386 127.743 54.8906 128.12 54.9567C128.498 55.0229 128.848 55.2 129.125 55.4658C129.403 55.7316 129.595 56.074 129.678 56.4497C129.761 56.8253 129.731 57.2173 129.592 57.5759C129.453 57.9345 129.211 58.2435 128.897 58.4639C128.582 58.6843 128.21 58.806 127.826 58.8137C127.572 58.8312 127.317 58.7958 127.077 58.7097C126.838 58.6236 126.618 58.4886 126.433 58.3133C126.247 58.138 126.1 57.9261 126 57.6909C125.9 57.4558 125.85 57.2024 125.852 56.9468V56.9214ZM125.852 59.7154H129.649V71.374H125.852V59.7154ZM143.431 65.5447C143.431 69.3547 141.748 71.5264 138.863 71.5264C138.123 71.574 137.386 71.3925 136.752 71.0064C136.118 70.6203 135.618 70.0481 135.319 69.3674H135.243V75.1078H131.446V59.69H135.243V61.7728H135.319C135.604 61.0808 136.095 60.4937 136.724 60.0915C137.354 59.6893 138.092 59.4915 138.837 59.5249C141.748 59.5757 143.482 61.7601 143.482 65.5701L143.431 65.5447ZM139.635 65.5447C139.635 63.6905 138.787 62.5094 137.458 62.5094C136.129 62.5094 135.281 63.7032 135.268 65.5447C135.256 67.3862 136.129 68.5673 137.458 68.5673C138.787 68.5673 139.635 67.4116 139.635 65.5701V65.5447ZM149.949 59.4487C153.101 59.4487 155.012 60.9473 155.1 63.3476H151.645C151.645 62.5221 150.962 62.0014 149.911 62.0014C148.861 62.0014 148.393 62.4078 148.393 63.0047C148.393 63.6016 148.81 63.7921 149.658 63.9699L152.088 64.4652C154.404 64.9605 155.391 65.9003 155.391 67.6656C155.391 70.0786 153.202 71.628 149.975 71.628C146.747 71.628 144.634 70.0786 144.469 67.7037H148.127C148.241 68.5673 148.924 69.0753 150.038 69.0753C151.152 69.0753 151.658 68.707 151.658 68.0974C151.658 67.4878 151.303 67.3608 150.392 67.1703L148.203 66.7004C145.937 66.2305 144.748 65.024 144.748 63.246C144.773 60.96 146.811 59.4741 149.949 59.4741V59.4487ZM168.06 71.3486H164.403V69.1769H164.327C164.126 69.906 163.682 70.5442 163.07 70.9854C162.457 71.4267 161.713 71.6445 160.96 71.6026C160.383 71.6355 159.806 71.5437 159.268 71.3336C158.729 71.1234 158.242 70.7997 157.839 70.3844C157.436 69.969 157.126 69.4717 156.931 68.926C156.736 68.3802 156.66 67.7989 156.708 67.2211V59.69H160.504V66.3448C160.504 67.7291 161.213 68.4657 162.39 68.4657C162.666 68.4662 162.939 68.4076 163.191 68.2937C163.442 68.1797 163.667 68.0132 163.849 67.8051C164.031 67.597 164.167 67.3523 164.247 67.0873C164.327 66.8223 164.35 66.5432 164.314 66.2686V59.69H168.111L168.06 71.3486ZM169.895 59.69H173.566V61.9379H173.641C173.843 61.2184 174.276 60.5863 174.874 60.1404C175.472 59.6946 176.2 59.4603 176.945 59.4741C177.702 59.4132 178.455 59.6407 179.053 60.1113C179.651 60.582 180.05 61.2613 180.172 62.0141H180.248C180.478 61.2533 180.953 60.5907 181.599 60.1309C182.245 59.671 183.026 59.4399 183.817 59.4741C184.333 59.4567 184.848 59.5485 185.326 59.7435C185.805 59.9385 186.237 60.2325 186.595 60.6062C186.954 60.9799 187.229 61.425 187.405 61.9126C187.58 62.4002 187.651 62.9194 187.614 63.4365V71.374H183.817V64.4525C183.817 63.1825 183.247 62.5983 182.184 62.5983C181.947 62.5963 181.713 62.6453 181.496 62.7421C181.279 62.8388 181.086 62.9811 180.929 63.1592C180.772 63.3374 180.654 63.5473 180.585 63.7747C180.516 64.0022 180.496 64.242 180.526 64.4779V71.374H176.919V64.4017C176.919 63.2333 176.35 62.5983 175.312 62.5983C175.072 62.5983 174.835 62.6494 174.617 62.7482C174.398 62.8469 174.203 62.991 174.044 63.171C173.885 63.3511 173.765 63.5629 173.694 63.7925C173.622 64.0222 173.6 64.2644 173.629 64.5033V71.374H169.832L169.895 59.69Z" fill="#1E1B1B"/>
<path d="M70.2162 56.6674C69.5721 55.1896 68.7196 53.8124 67.685 52.578C66.1554 50.6989 64.2466 49.1661 62.0842 48.0805C59.9218 46.9949 57.5548 46.3812 55.139 46.2797C52.7232 46.1782 50.3133 46.5913 48.068 47.4917C45.8228 48.3921 43.793 49.7595 42.1123 51.5038C40.4316 53.2481 39.1381 55.3298 38.3169 57.6119C37.4957 59.894 37.1654 62.3248 37.3479 64.7442C37.5303 67.1636 38.2213 69.5168 39.3753 71.6489C40.5293 73.781 42.1203 75.6437 44.0434 77.1144C45.2773 78.077 46.6408 78.8594 48.0933 79.4385C50.1297 80.276 52.3092 80.7073 54.51 80.7085C59.0527 80.6985 63.4062 78.8814 66.6161 75.6556C69.826 72.4298 71.6303 68.0586 71.6337 63.5C71.637 61.1487 71.1543 58.8221 70.2162 56.6674V56.6674ZM54.4973 49.7713C56.4736 49.7711 58.4261 50.2046 60.2179 51.0413V51.0413C59.7809 51.2308 59.3215 51.3631 58.851 51.435C57.3027 51.66 55.8683 52.3813 54.762 53.4914C53.6558 54.6015 52.9369 56.0408 52.7128 57.5945C52.6144 58.4659 52.2195 59.2766 51.5946 59.8897C50.9698 60.5028 50.1533 60.8808 49.283 60.96C47.7346 61.185 46.3003 61.9063 45.194 63.0164C44.0878 64.1265 43.3689 65.5658 43.1448 67.1195C43.0689 67.9481 42.7166 68.7267 42.145 69.3293V69.3293C41.1586 67.238 40.7155 64.9302 40.8569 62.6208C40.9983 60.3115 41.7196 58.0755 42.9536 56.121C44.1877 54.1666 45.8944 52.5571 47.915 51.4425C49.9355 50.3278 52.2042 49.7442 54.51 49.7459L54.4973 49.7713ZM44.0307 72.39C44.1826 72.2503 44.3345 72.1233 44.4863 71.9709C45.6123 70.8755 46.335 69.4295 46.5366 67.8688C46.6184 66.9916 47.0087 66.1722 47.6377 65.5574C48.243 64.9252 49.0577 64.5368 49.9285 64.4652C51.4768 64.2403 52.9112 63.519 54.0174 62.4089C55.1237 61.2988 55.8425 59.8595 56.0667 58.3057C56.1214 57.3882 56.5138 56.5237 57.1677 55.88C57.788 55.2601 58.6104 54.8858 59.4838 54.8259C60.9062 54.6296 62.2329 53.995 63.2806 53.0098C64.4737 54.0031 65.4845 55.1979 66.2675 56.5404C66.2194 56.6057 66.1642 56.6653 66.1029 56.7182C65.4988 57.356 64.6852 57.753 63.8122 57.8358C62.2623 58.0568 60.8257 58.7769 59.7188 59.8877C58.6118 60.9985 57.8942 62.44 57.674 63.9953C57.5848 64.8696 57.1971 65.6861 56.5767 66.3064C55.9562 66.9267 55.1411 67.3127 54.2695 67.3989C52.7166 67.6221 51.2769 68.342 50.1643 69.4517C49.0516 70.5614 48.3253 72.0016 48.0933 73.5584C48.0252 74.1791 47.8128 74.7751 47.4732 75.2983C46.1747 74.5247 45.0117 73.5422 44.0307 72.39V72.39ZM54.4973 77.2922C53.2131 77.2936 51.935 77.1141 50.7005 76.7588C51.1228 75.9689 51.3973 75.108 51.5105 74.2188C51.5992 73.3465 51.985 72.5315 52.6029 71.9115C53.2208 71.2914 54.033 70.9042 54.9023 70.8152C56.4529 70.5929 57.8902 69.8726 58.9989 68.7623C60.1077 67.652 60.8284 66.2113 61.0532 64.6557C61.1419 63.7834 61.5277 62.9684 62.1456 62.3484C62.7635 61.7283 63.5757 61.3411 64.445 61.2521C65.6119 61.0998 66.7241 60.6639 67.685 59.9821C68.2185 62.0115 68.2817 64.1365 67.8697 66.1942C67.4577 68.2518 66.5815 70.1874 65.3083 71.8525C64.0351 73.5176 62.3987 74.8679 60.5247 75.7999C58.6507 76.7318 56.5888 77.2206 54.4973 77.2287V77.2922Z" fill="#FF6433"/>
</svg>
