<svg width="225" height="127" viewBox="0 0 225 127" fill="none" xmlns="http://www.w3.org/2000/svg">
<path d="M70.0136 53.6576H73.8104V72.0091H70.0136V53.6576Z" fill="#1E1B1B"/>
<path d="M75.9366 65.7225C75.9366 64.4021 76.3273 63.1115 77.0591 62.0143C77.7909 60.917 78.8309 60.0624 80.0472 59.5589C81.2635 59.0554 82.6014 58.9256 83.8913 59.186C85.1813 59.4464 86.3651 60.0852 87.2928 61.0215C88.2205 61.9577 88.8504 63.1493 89.1024 64.4452C89.3545 65.7411 89.2175 67.0829 88.7088 68.3005C88.2 69.5182 87.3425 70.5568 86.2448 71.2849C85.1472 72.0129 83.8588 72.3975 82.5431 72.39C81.6704 72.3968 80.8051 72.2287 79.998 71.8956C79.1909 71.5625 78.4582 71.071 77.8429 70.45C77.2276 69.829 76.742 69.0909 76.4147 68.2791C76.0873 67.4673 75.9248 66.5981 75.9366 65.7225V65.7225ZM85.454 65.7225C85.439 65.1532 85.2572 64.6011 84.9312 64.135C84.6052 63.669 84.1495 63.3097 83.6211 63.1022C83.0927 62.8947 82.515 62.8481 81.9603 62.9683C81.4057 63.0885 80.8986 63.3701 80.5027 63.7779C80.1067 64.1857 79.8393 64.7017 79.7339 65.2612C79.6286 65.8207 79.69 66.399 79.9105 66.9236C80.131 67.4483 80.5007 67.8961 80.9734 68.2111C81.4462 68.526 82.001 68.6941 82.5684 68.6943C82.9547 68.7018 83.3385 68.6293 83.6956 68.4813C84.0528 68.3333 84.3757 68.113 84.6441 67.834C84.9126 67.5551 85.1208 67.2237 85.2558 66.8603C85.3908 66.497 85.4496 66.1096 85.4287 65.7225H85.454Z" fill="#1E1B1B"/>
<path d="M104.172 59.436V71.3867C104.172 75.6031 100.882 77.3938 97.5533 77.3938C96.3793 77.4905 95.2016 77.2564 94.1529 76.7179C93.1043 76.1794 92.2262 75.3579 91.6176 74.3458L94.8196 72.4916C95.0791 73.0166 95.4918 73.4497 96.0028 73.7333C96.5138 74.0169 97.0988 74.1376 97.6799 74.0791C98.05 74.1249 98.4257 74.088 98.78 73.9711C99.1343 73.8542 99.4584 73.6602 99.7293 73.403C100 73.1457 100.211 72.8316 100.347 72.483C100.483 72.1345 100.54 71.7601 100.515 71.3867V70.231C100.073 70.7686 99.5124 71.1954 98.8775 71.4776C98.2426 71.7597 97.5508 71.8895 96.8572 71.8566C95.1789 71.8566 93.5694 71.1876 92.3826 69.9967C91.1959 68.8059 90.5292 67.1907 90.5292 65.5066C90.5292 63.8225 91.1959 62.2073 92.3826 61.0165C93.5694 59.8256 95.1789 59.1566 96.8572 59.1566C97.5508 59.1237 98.2426 59.2535 98.8775 59.5357C99.5124 59.8178 100.073 60.2447 100.515 60.7822V59.5122L104.172 59.436ZM100.515 65.4685C100.54 64.8609 100.384 64.2596 100.066 63.7419C99.7475 63.2243 99.2825 62.8139 98.7301 62.5636C98.1778 62.3133 97.5635 62.2346 96.9662 62.3374C96.3689 62.4403 95.8159 62.7201 95.3784 63.1409C94.9408 63.5617 94.6387 64.1042 94.5109 64.6986C94.3831 65.2931 94.4354 65.9123 94.6611 66.4767C94.8868 67.0411 95.2756 67.5248 95.7774 67.8657C96.2793 68.2066 96.8713 68.389 97.4774 68.3895C97.8728 68.4181 98.2698 68.3631 98.6428 68.2282C99.0158 68.0932 99.3564 67.8813 99.6426 67.606C99.9289 67.3307 100.154 66.9982 100.305 66.6301C100.455 66.2619 100.526 65.8662 100.515 65.4685V65.4685Z" fill="#1E1B1B"/>
<path d="M106.311 65.7226C106.311 64.4033 106.701 63.1137 107.432 62.017C108.162 60.9202 109.201 60.0656 110.416 59.5614C111.631 59.0571 112.967 58.9258 114.256 59.1841C115.546 59.4424 116.73 60.0787 117.658 61.0124C118.587 61.9462 119.219 63.1354 119.474 64.4296C119.729 65.7238 119.595 67.0648 119.091 68.2829C118.586 69.501 117.732 70.5414 116.638 71.2726C115.543 72.0037 114.258 72.3926 112.943 72.3901C112.069 72.3986 111.201 72.2318 110.392 71.8996C109.583 71.5674 108.848 71.0764 108.23 70.4554C107.612 69.8344 107.124 69.0959 106.795 68.2831C106.465 67.4704 106.301 66.5999 106.311 65.7226ZM115.828 65.7226C115.814 65.1528 115.631 64.6001 115.305 64.1338C114.978 63.6675 114.522 63.3083 113.993 63.1012C113.463 62.894 112.885 62.8482 112.33 62.9694C111.775 63.0906 111.268 63.3735 110.873 63.7826C110.477 64.1917 110.211 64.7088 110.107 65.2691C110.003 65.8295 110.066 66.4081 110.289 66.9325C110.511 67.457 110.883 67.9039 111.357 68.2173C111.832 68.5307 112.388 68.6967 112.956 68.6944C113.342 68.7019 113.726 68.6294 114.083 68.4814C114.44 68.3334 114.763 68.113 115.031 67.8341C115.3 67.5552 115.508 67.2237 115.643 66.8604C115.778 66.4971 115.837 66.1097 115.816 65.7226H115.828Z" fill="#1E1B1B"/>
<path d="M121.334 56.0704C121.334 55.6233 121.466 55.1862 121.714 54.8145C121.961 54.4427 122.313 54.153 122.725 53.9819C123.136 53.8108 123.589 53.766 124.026 53.8533C124.463 53.9405 124.865 54.1558 125.18 54.4719C125.495 54.7881 125.709 55.1909 125.796 55.6294C125.883 56.0679 125.839 56.5224 125.668 56.9355C125.498 57.3486 125.209 57.7016 124.838 57.95C124.468 58.1984 124.032 58.331 123.587 58.331C122.991 58.3244 122.422 58.0841 122.001 57.6616C121.58 57.2391 121.341 56.6679 121.334 56.0704V56.0704ZM121.701 59.4359H125.498V72.0089H121.701V59.4359Z" fill="#1E1B1B"/>
<path d="M141.748 65.7225C141.791 66.5587 141.668 67.395 141.387 68.1835C141.107 68.9719 140.673 69.6968 140.112 70.3165C139.551 70.9362 138.873 71.4384 138.118 71.7942C137.363 72.1501 136.545 72.3526 135.711 72.39C135.004 72.4372 134.295 72.3235 133.638 72.0575C132.98 71.7914 132.391 71.3798 131.915 70.8533V77.0636H128.118V59.436H131.915V60.6171C132.392 60.0922 132.981 59.6825 133.639 59.4185C134.296 59.1546 135.005 59.0434 135.711 59.0931C136.542 59.1306 137.356 59.3318 138.109 59.6853C138.862 60.0388 139.538 60.5375 140.098 61.1531C140.659 61.7687 141.093 62.4891 141.376 63.2731C141.659 64.0571 141.786 64.8894 141.748 65.7225V65.7225ZM137.952 65.7225C137.937 65.1326 137.748 64.5603 137.411 64.0773C137.073 63.5943 136.601 63.2221 136.053 63.0072C135.505 62.7924 134.907 62.7446 134.332 62.8697C133.758 62.9948 133.233 63.2874 132.823 63.7107C132.413 64.134 132.137 64.6692 132.029 65.2493C131.922 65.8293 131.987 66.4284 132.217 66.9714C132.447 67.5144 132.832 67.9772 133.323 68.3017C133.814 68.6263 134.389 68.7982 134.977 68.7959C135.38 68.813 135.782 68.7446 136.156 68.595C136.531 68.4454 136.87 68.218 137.151 67.9278C137.431 67.6376 137.648 67.2911 137.786 66.9111C137.924 66.531 137.98 66.126 137.952 65.7225V65.7225Z" fill="#1E1B1B"/>
<path d="M153.303 68.2372C153.303 71.1328 150.772 72.3647 148.089 72.3647C146.995 72.4635 145.896 72.2307 144.935 71.6964C143.974 71.1621 143.194 70.3509 142.697 69.3675L145.963 67.5133C146.092 67.9664 146.373 68.3613 146.757 68.6318C147.142 68.9022 147.608 69.0319 148.076 68.9992C148.975 68.9992 149.431 68.7198 149.431 68.2118C149.431 66.8275 143.267 67.5641 143.267 63.208C143.267 60.4648 145.57 59.0932 148.178 59.0932C149.169 59.0486 150.153 59.2743 151.027 59.7461C151.9 60.2179 152.63 60.9183 153.139 61.7729L149.873 63.5001C149.729 63.1724 149.494 62.8937 149.195 62.6976C148.896 62.5016 148.547 62.3965 148.19 62.3952C147.532 62.3952 147.14 62.6492 147.14 63.0937C147.14 64.5415 153.303 63.589 153.303 68.2372Z" fill="#1E1B1B"/>
<path d="M167.061 59.436V72.009H163.264V70.8279C162.832 71.3507 162.285 71.7645 161.665 72.0358C161.045 72.3072 160.37 72.4285 159.695 72.39C157.163 72.39 154.999 70.5739 154.999 67.183V59.436H158.796V66.6115C158.766 66.9115 158.802 67.2144 158.9 67.4993C158.998 67.7843 159.157 68.0444 159.365 68.2617C159.573 68.4791 159.826 68.6485 160.106 68.7583C160.385 68.8681 160.686 68.9156 160.986 68.8975C162.352 68.8975 163.314 68.0847 163.314 66.3575V59.436H167.061Z" fill="#1E1B1B"/>
<path d="M188.576 64.2874V72.009H184.779V64.6176C184.779 63.3476 184.184 62.5602 182.982 62.5602C181.779 62.5602 181.02 63.4365 181.02 64.9224V72.009H177.223V64.6176C177.223 63.3476 176.628 62.5602 175.426 62.5602C174.224 62.5602 173.464 63.4365 173.464 64.9224V72.009H169.667V59.436H173.464V60.5917C173.857 60.0811 174.371 59.6768 174.959 59.4152C175.546 59.1535 176.19 59.0429 176.831 59.0931C177.473 59.0595 178.113 59.194 178.687 59.4835C179.262 59.7729 179.752 60.2074 180.109 60.7441C180.526 60.1833 181.078 59.7378 181.713 59.4491C182.348 59.1603 183.046 59.0379 183.741 59.0931C186.702 59.0931 188.576 61.1505 188.576 64.2874Z" fill="#1E1B1B"/>
<path d="M47.397 50.3555V44.958H30.4378V82.042H47.397V76.6445C43.9229 76.6445 40.5911 75.2596 38.1346 72.7946C35.678 70.3295 34.2979 66.9861 34.2979 63.5C34.2979 60.0139 35.678 56.6705 38.1346 54.2054C40.5911 51.7404 43.9229 50.3555 47.397 50.3555V50.3555Z" fill="#FF6433"/>
<path d="M47.3971 50.3555V76.6445C50.8712 76.6445 54.203 75.2596 56.6595 72.7945C59.1161 70.3295 60.4961 66.9861 60.4961 63.5C60.4961 60.0138 59.1161 56.6705 56.6595 54.2054C54.203 51.7403 50.8712 50.3555 47.3971 50.3555V50.3555Z" fill="#FF6433"/>
<path d="M191.765 59.3597C193.303 59.3597 194.55 58.1088 194.55 56.5657C194.55 55.0226 193.303 53.7717 191.765 53.7717C190.227 53.7717 188.981 55.0226 188.981 56.5657C188.981 58.1088 190.227 59.3597 191.765 59.3597Z" fill="#1E1B1B"/>
</svg>
